{"asset":{"version":"2.0","generator":"BMSX bare_metal_cart mesh contract"},"buffers":[{"uri":"data:application/octet-stream;base64,","byteLength":222}],"bufferViews":[{"buffer":0,"byteOffset":0,"byteLength":36},{"buffer":0,"byteOffset":36,"byteLength":24},{"buffer":0,"byteOffset":60,"byteLength":48},{"buffer":0,"byteOffset":108,"byteLength":36},{"buffer":0,"byteOffset":144,"byteLength":24},{"buffer":0,"byteOffset":168,"byteLength":48},{"buffer":0,"byteOffset":216,"byteLength":6}],"accessors":[{"bufferView":0,"componentType":5126,"count":3,"type":"VEC3","min":[-0.65,-0.45,0.0],"max":[0.65,0.65,0.0]},{"bufferView":1,"componentType":5126,"count":3,"type":"VEC2"},{"bufferView":2,"componentType":5126,"count":3,"type":"VEC4"},{"bufferView":3,"componentType":5126,"count":3,"type":"VEC3"},{"bufferView":4,"componentType":5123,"count":3,"type":"VEC4"},{"bufferView":5,"componentType":5126,"count":3,"type":"VEC4"},{"bufferView":6,"componentType":5123,"count":3,"type":"SCALAR"}],"materials":[{"name":"vram_slot_material","pbrMetallicRoughness":{"baseColorFactor":[1.0,1.0,1.0,1.0]},"doubleSided":true,"extensions":{"KHR_materials_unlit":{}}}],"meshes":[{"name":"bare_metal_mesh","weights":[0.0],"primitives":[{"attributes":{"POSITION":0,"TEXCOORD_0":1,"COLOR_0":2,"JOINTS_0":4,"WEIGHTS_0":5},"targets":[{"POSITION":3}],"indices":6,"material":0,"mode":4}]}],"nodes":[{"mesh":0,"skin":0}],"skins":[{"joints":[0]}],"scenes":[{"nodes":[0]}],"scene":0,"extensionsUsed":["KHR_materials_unlit"]}